<mxfile host="app.diagrams.net" modified="2024-03-26T11:59:15.023Z" agent="Mozilla/5.0 (X11; Ubuntu; Linux x86_64; rv:123.0) Gecko/20100101 Firefox/123.0" etag="GQwTftHJx4R_NsixpdqI" version="23.1.2" type="device">
  <diagram name="Page-1" id="ZNgatQNP_Dz1pTBqo4t7">
    <mxGraphModel dx="1364" dy="795" grid="1" gridSize="10" guides="1" tooltips="1" connect="1" arrows="1" fold="1" page="1" pageScale="1" pageWidth="827" pageHeight="1169" math="0" shadow="0">
      <root>
        <mxCell id="0" />
        <mxCell id="1" parent="0" />
        <mxCell id="-ICo0GWUgO3AaRTY43pM-67" value="" style="rounded=0;whiteSpace=wrap;html=1;" vertex="1" parent="1">
          <mxGeometry x="220" y="270" width="500" height="420" as="geometry" />
        </mxCell>
        <mxCell id="-ICo0GWUgO3AaRTY43pM-68" value="" style="rounded=1;whiteSpace=wrap;html=1;" vertex="1" parent="1">
          <mxGeometry x="266" y="320" width="404" height="330" as="geometry" />
        </mxCell>
        <mxCell id="-ICo0GWUgO3AaRTY43pM-69" value="main()" style="text;html=1;strokeColor=none;fillColor=none;align=center;verticalAlign=middle;whiteSpace=wrap;rounded=0;fontSize=21;" vertex="1" parent="1">
          <mxGeometry x="190" y="220" width="90" height="40" as="geometry" />
        </mxCell>
        <mxCell id="-ICo0GWUgO3AaRTY43pM-70" value="lc (maillon)" style="text;html=1;strokeColor=none;fillColor=none;align=center;verticalAlign=middle;whiteSpace=wrap;rounded=0;" vertex="1" parent="1">
          <mxGeometry x="290" y="290" width="80" height="30" as="geometry" />
        </mxCell>
        <mxCell id="-ICo0GWUgO3AaRTY43pM-71" value="1" style="rounded=1;whiteSpace=wrap;html=1;" vertex="1" parent="1">
          <mxGeometry x="320" y="350" width="120" height="60" as="geometry" />
        </mxCell>
        <mxCell id="-ICo0GWUgO3AaRTY43pM-72" value="x (int)" style="text;html=1;strokeColor=none;fillColor=none;align=center;verticalAlign=middle;whiteSpace=wrap;rounded=0;" vertex="1" parent="1">
          <mxGeometry x="320" y="330" width="70" height="30" as="geometry" />
        </mxCell>
        <mxCell id="-ICo0GWUgO3AaRTY43pM-73" value="" style="rounded=1;whiteSpace=wrap;html=1;" vertex="1" parent="1">
          <mxGeometry x="330" y="440" width="280" height="180" as="geometry" />
        </mxCell>
        <mxCell id="-ICo0GWUgO3AaRTY43pM-74" value="suiv (maillon)" style="text;html=1;strokeColor=none;fillColor=none;align=center;verticalAlign=middle;whiteSpace=wrap;rounded=0;" vertex="1" parent="1">
          <mxGeometry x="330" y="420" width="90" height="30" as="geometry" />
        </mxCell>
        <mxCell id="-ICo0GWUgO3AaRTY43pM-76" value="2" style="rounded=1;whiteSpace=wrap;html=1;" vertex="1" parent="1">
          <mxGeometry x="354" y="465" width="120" height="60" as="geometry" />
        </mxCell>
        <mxCell id="-ICo0GWUgO3AaRTY43pM-77" value="x (int)" style="text;html=1;strokeColor=none;fillColor=none;align=center;verticalAlign=middle;whiteSpace=wrap;rounded=0;" vertex="1" parent="1">
          <mxGeometry x="354" y="445" width="70" height="30" as="geometry" />
        </mxCell>
        <mxCell id="-ICo0GWUgO3AaRTY43pM-78" value="?" style="rounded=1;whiteSpace=wrap;html=1;" vertex="1" parent="1">
          <mxGeometry x="430" y="550" width="120" height="60" as="geometry" />
        </mxCell>
        <mxCell id="-ICo0GWUgO3AaRTY43pM-79" value="suiv (maillon)" style="text;html=1;strokeColor=none;fillColor=none;align=center;verticalAlign=middle;whiteSpace=wrap;rounded=0;" vertex="1" parent="1">
          <mxGeometry x="430" y="525" width="80" height="30" as="geometry" />
        </mxCell>
      </root>
    </mxGraphModel>
  </diagram>
</mxfile>
